<mxfile host="Electron" modified="2024-05-26T13:03:28.136Z" agent="Mozilla/5.0 (Macintosh; Intel Mac OS X 10_15_7) AppleWebKit/537.36 (KHTML, like Gecko) draw.io/22.0.3 Chrome/114.0.5735.289 Electron/25.8.4 Safari/537.36" etag="6yOrkm6UT1rN3-JY--C7" version="22.0.3" type="device">
  <diagram name="Page-1" id="81no7WhhS8gW8Pumma5D">
    <mxGraphModel dx="984" dy="718" grid="1" gridSize="10" guides="1" tooltips="1" connect="1" arrows="1" fold="1" page="1" pageScale="1" pageWidth="827" pageHeight="1169" math="0" shadow="0">
      <root>
        <mxCell id="0" />
        <mxCell id="1" parent="0" />
        <mxCell id="yZ1Du_M-w4z_Nj0z4mj2-16" style="edgeStyle=orthogonalEdgeStyle;rounded=0;orthogonalLoop=1;jettySize=auto;html=1;exitX=0.5;exitY=0.5;exitDx=0;exitDy=0;exitPerimeter=0;entryX=1;entryY=0.5;entryDx=0;entryDy=0;" parent="1" source="yZ1Du_M-w4z_Nj0z4mj2-2" target="yZ1Du_M-w4z_Nj0z4mj2-5" edge="1">
          <mxGeometry relative="1" as="geometry" />
        </mxCell>
        <mxCell id="yZ1Du_M-w4z_Nj0z4mj2-17" style="edgeStyle=orthogonalEdgeStyle;rounded=0;orthogonalLoop=1;jettySize=auto;html=1;exitX=0.5;exitY=0.5;exitDx=0;exitDy=0;exitPerimeter=0;entryX=1;entryY=0.5;entryDx=0;entryDy=0;" parent="1" source="yZ1Du_M-w4z_Nj0z4mj2-2" target="yZ1Du_M-w4z_Nj0z4mj2-6" edge="1">
          <mxGeometry relative="1" as="geometry" />
        </mxCell>
        <mxCell id="yZ1Du_M-w4z_Nj0z4mj2-18" style="edgeStyle=orthogonalEdgeStyle;rounded=0;orthogonalLoop=1;jettySize=auto;html=1;exitX=0.5;exitY=0.5;exitDx=0;exitDy=0;exitPerimeter=0;entryX=1;entryY=0.5;entryDx=0;entryDy=0;" parent="1" source="yZ1Du_M-w4z_Nj0z4mj2-2" target="yZ1Du_M-w4z_Nj0z4mj2-7" edge="1">
          <mxGeometry relative="1" as="geometry" />
        </mxCell>
        <mxCell id="yZ1Du_M-w4z_Nj0z4mj2-26" style="edgeStyle=orthogonalEdgeStyle;rounded=0;orthogonalLoop=1;jettySize=auto;html=1;exitX=0.5;exitY=0.5;exitDx=0;exitDy=0;exitPerimeter=0;entryX=0;entryY=0.5;entryDx=0;entryDy=0;" parent="1" source="yZ1Du_M-w4z_Nj0z4mj2-2" target="yZ1Du_M-w4z_Nj0z4mj2-19" edge="1">
          <mxGeometry relative="1" as="geometry" />
        </mxCell>
        <mxCell id="yZ1Du_M-w4z_Nj0z4mj2-27" style="edgeStyle=orthogonalEdgeStyle;rounded=0;orthogonalLoop=1;jettySize=auto;html=1;exitX=0.5;exitY=0.5;exitDx=0;exitDy=0;exitPerimeter=0;entryX=0.5;entryY=0;entryDx=0;entryDy=0;" parent="1" source="yZ1Du_M-w4z_Nj0z4mj2-2" target="yZ1Du_M-w4z_Nj0z4mj2-15" edge="1">
          <mxGeometry relative="1" as="geometry">
            <Array as="points">
              <mxPoint x="240" y="340" />
              <mxPoint x="240" y="285" />
              <mxPoint x="500" y="285" />
            </Array>
          </mxGeometry>
        </mxCell>
        <mxCell id="yZ1Du_M-w4z_Nj0z4mj2-2" value="Исполнитель" style="shape=umlActor;verticalLabelPosition=bottom;verticalAlign=top;html=1;" parent="1" vertex="1">
          <mxGeometry x="190" y="310" width="30" height="60" as="geometry" />
        </mxCell>
        <mxCell id="yZ1Du_M-w4z_Nj0z4mj2-25" style="edgeStyle=orthogonalEdgeStyle;rounded=0;orthogonalLoop=1;jettySize=auto;html=1;exitX=0.5;exitY=0.5;exitDx=0;exitDy=0;exitPerimeter=0;entryX=1;entryY=0.5;entryDx=0;entryDy=0;" parent="1" source="yZ1Du_M-w4z_Nj0z4mj2-3" target="yZ1Du_M-w4z_Nj0z4mj2-15" edge="1">
          <mxGeometry relative="1" as="geometry" />
        </mxCell>
        <mxCell id="yZ1Du_M-w4z_Nj0z4mj2-28" style="edgeStyle=orthogonalEdgeStyle;rounded=0;orthogonalLoop=1;jettySize=auto;html=1;exitX=0.5;exitY=0.5;exitDx=0;exitDy=0;exitPerimeter=0;entryX=0.5;entryY=0;entryDx=0;entryDy=0;" parent="1" source="yZ1Du_M-w4z_Nj0z4mj2-3" target="yZ1Du_M-w4z_Nj0z4mj2-19" edge="1">
          <mxGeometry relative="1" as="geometry">
            <Array as="points">
              <mxPoint x="600" y="340" />
              <mxPoint x="600" y="270" />
              <mxPoint x="336" y="270" />
            </Array>
          </mxGeometry>
        </mxCell>
        <mxCell id="yZ1Du_M-w4z_Nj0z4mj2-29" style="edgeStyle=orthogonalEdgeStyle;rounded=0;orthogonalLoop=1;jettySize=auto;html=1;exitX=0.5;exitY=0.5;exitDx=0;exitDy=0;exitPerimeter=0;entryX=0;entryY=0.5;entryDx=0;entryDy=0;" parent="1" source="yZ1Du_M-w4z_Nj0z4mj2-3" target="yZ1Du_M-w4z_Nj0z4mj2-8" edge="1">
          <mxGeometry relative="1" as="geometry" />
        </mxCell>
        <mxCell id="yZ1Du_M-w4z_Nj0z4mj2-30" style="edgeStyle=orthogonalEdgeStyle;rounded=0;orthogonalLoop=1;jettySize=auto;html=1;exitX=0.5;exitY=0.5;exitDx=0;exitDy=0;exitPerimeter=0;entryX=0;entryY=0.5;entryDx=0;entryDy=0;" parent="1" source="yZ1Du_M-w4z_Nj0z4mj2-3" target="yZ1Du_M-w4z_Nj0z4mj2-9" edge="1">
          <mxGeometry relative="1" as="geometry" />
        </mxCell>
        <mxCell id="yZ1Du_M-w4z_Nj0z4mj2-31" style="edgeStyle=orthogonalEdgeStyle;rounded=0;orthogonalLoop=1;jettySize=auto;html=1;exitX=0.5;exitY=0.5;exitDx=0;exitDy=0;exitPerimeter=0;entryX=0;entryY=0.5;entryDx=0;entryDy=0;" parent="1" source="yZ1Du_M-w4z_Nj0z4mj2-3" target="yZ1Du_M-w4z_Nj0z4mj2-10" edge="1">
          <mxGeometry relative="1" as="geometry" />
        </mxCell>
        <mxCell id="yZ1Du_M-w4z_Nj0z4mj2-3" value="Пользователь" style="shape=umlActor;verticalLabelPosition=bottom;verticalAlign=top;html=1;" parent="1" vertex="1">
          <mxGeometry x="610" y="310" width="30" height="60" as="geometry" />
        </mxCell>
        <mxCell id="yZ1Du_M-w4z_Nj0z4mj2-22" style="edgeStyle=orthogonalEdgeStyle;rounded=0;orthogonalLoop=1;jettySize=auto;html=1;" parent="1" source="yZ1Du_M-w4z_Nj0z4mj2-4" target="yZ1Du_M-w4z_Nj0z4mj2-19" edge="1">
          <mxGeometry relative="1" as="geometry" />
        </mxCell>
        <mxCell id="yZ1Du_M-w4z_Nj0z4mj2-24" style="edgeStyle=orthogonalEdgeStyle;rounded=0;orthogonalLoop=1;jettySize=auto;html=1;exitX=0.5;exitY=0;exitDx=0;exitDy=0;exitPerimeter=0;" parent="1" source="yZ1Du_M-w4z_Nj0z4mj2-4" target="yZ1Du_M-w4z_Nj0z4mj2-15" edge="1">
          <mxGeometry relative="1" as="geometry" />
        </mxCell>
        <mxCell id="yZ1Du_M-w4z_Nj0z4mj2-34" style="edgeStyle=orthogonalEdgeStyle;rounded=0;orthogonalLoop=1;jettySize=auto;html=1;exitX=0.5;exitY=0.5;exitDx=0;exitDy=0;exitPerimeter=0;entryX=0.5;entryY=0;entryDx=0;entryDy=0;" parent="1" source="yZ1Du_M-w4z_Nj0z4mj2-4" target="yZ1Du_M-w4z_Nj0z4mj2-13" edge="1">
          <mxGeometry relative="1" as="geometry">
            <Array as="points">
              <mxPoint x="336" y="480" />
            </Array>
          </mxGeometry>
        </mxCell>
        <mxCell id="yZ1Du_M-w4z_Nj0z4mj2-35" style="edgeStyle=orthogonalEdgeStyle;rounded=0;orthogonalLoop=1;jettySize=auto;html=1;exitX=0.5;exitY=0.5;exitDx=0;exitDy=0;exitPerimeter=0;entryX=0.5;entryY=0;entryDx=0;entryDy=0;" parent="1" source="yZ1Du_M-w4z_Nj0z4mj2-4" target="yZ1Du_M-w4z_Nj0z4mj2-14" edge="1">
          <mxGeometry relative="1" as="geometry">
            <Array as="points">
              <mxPoint x="491" y="480" />
            </Array>
          </mxGeometry>
        </mxCell>
        <mxCell id="yZ1Du_M-w4z_Nj0z4mj2-4" value="Гость" style="shape=umlActor;verticalLabelPosition=bottom;verticalAlign=top;html=1;" parent="1" vertex="1">
          <mxGeometry x="398.5" y="450" width="30" height="60" as="geometry" />
        </mxCell>
        <mxCell id="yZ1Du_M-w4z_Nj0z4mj2-5" value="Добавить трек" style="ellipse;whiteSpace=wrap;html=1;" parent="1" vertex="1">
          <mxGeometry y="220" width="140" height="70" as="geometry" />
        </mxCell>
        <mxCell id="yZ1Du_M-w4z_Nj0z4mj2-6" value="Создать альбом" style="ellipse;whiteSpace=wrap;html=1;" parent="1" vertex="1">
          <mxGeometry y="305" width="140" height="70" as="geometry" />
        </mxCell>
        <mxCell id="yZ1Du_M-w4z_Nj0z4mj2-7" value="Редактировать информацию о себе" style="ellipse;whiteSpace=wrap;html=1;" parent="1" vertex="1">
          <mxGeometry y="390" width="140" height="70" as="geometry" />
        </mxCell>
        <mxCell id="yZ1Du_M-w4z_Nj0z4mj2-8" value="Оформление подписки" style="ellipse;whiteSpace=wrap;html=1;" parent="1" vertex="1">
          <mxGeometry x="687" y="220" width="140" height="70" as="geometry" />
        </mxCell>
        <mxCell id="yZ1Du_M-w4z_Nj0z4mj2-9" value="Добавление трека в избранное" style="ellipse;whiteSpace=wrap;html=1;" parent="1" vertex="1">
          <mxGeometry x="687" y="305" width="140" height="70" as="geometry" />
        </mxCell>
        <mxCell id="yZ1Du_M-w4z_Nj0z4mj2-10" value="Публикация комментириев" style="ellipse;whiteSpace=wrap;html=1;" parent="1" vertex="1">
          <mxGeometry x="687" y="390" width="140" height="70" as="geometry" />
        </mxCell>
        <mxCell id="yZ1Du_M-w4z_Nj0z4mj2-13" value="Регистрация" style="ellipse;whiteSpace=wrap;html=1;" parent="1" vertex="1">
          <mxGeometry x="266" y="550" width="140" height="70" as="geometry" />
        </mxCell>
        <mxCell id="yZ1Du_M-w4z_Nj0z4mj2-14" value="Авторизация" style="ellipse;whiteSpace=wrap;html=1;" parent="1" vertex="1">
          <mxGeometry x="421" y="550" width="140" height="70" as="geometry" />
        </mxCell>
        <mxCell id="yZ1Du_M-w4z_Nj0z4mj2-15" value="Прослушивание музыки" style="ellipse;whiteSpace=wrap;html=1;" parent="1" vertex="1">
          <mxGeometry x="430" y="305" width="140" height="70" as="geometry" />
        </mxCell>
        <mxCell id="yZ1Du_M-w4z_Nj0z4mj2-19" value="Просмотр исполнителей, альбомов и треков" style="ellipse;whiteSpace=wrap;html=1;" parent="1" vertex="1">
          <mxGeometry x="266" y="305" width="140" height="70" as="geometry" />
        </mxCell>
      </root>
    </mxGraphModel>
  </diagram>
</mxfile>
